<?xml version="1.0" standalone="no"?>
<!DOCTYPE svg PUBLIC "-//W3C//DTD SVG 20010904//EN"
 "http://www.w3.org/TR/2001/REC-SVG-20010904/DTD/svg10.dtd">
<svg version="1.0" xmlns="http://www.w3.org/2000/svg"
 width="1280.000000pt" height="1280.000000pt" viewBox="0 0 1280.000000 1280.000000"
 preserveAspectRatio="xMidYMid meet">
<metadata>
Created by potrace 1.14, written by Peter Selinger 2001-2017
</metadata>
<g transform="translate(0.000000,1280.000000) scale(0.100000,-0.100000)"
fill="#000000" stroke="none">
<path d="M7663 10651 c-34 -10 -73 -25 -87 -35 -14 -9 -26 -13 -26 -9 0 5 -4
3 -8 -2 -4 -6 -25 -23 -47 -40 -39 -28 -5372 -5359 -5427 -5424 -34 -40 -85
-147 -97 -203 -23 -102 0 -239 55 -335 57 -98 112 -161 177 -198 90 -53 95
-55 116 -55 11 0 22 -4 25 -9 7 -10 122 -36 156 -34 83 5 167 38 250 97 45 32
762 747 768 766 2 6 8 10 12 10 5 0 29 21 54 48 24 26 342 346 706 712 364
366 1009 1015 1433 1444 425 428 780 786 790 795 10 9 87 86 172 171 1606
1616 1501 1508 1540 1577 14 25 25 52 25 59 0 8 5 14 10 14 5 0 9 3 9 8 -1 4
0 9 1 12 9 23 13 58 15 135 3 80 0 97 -25 159 -16 38 -44 90 -61 115 -38 54
-139 151 -156 151 -7 0 -13 4 -13 8 0 11 -101 57 -155 71 -57 16 -141 12 -212
-8z"/>
<path d="M8775 9209 c-90 -28 -95 -31 -95 -40 0 -5 -6 -9 -14 -9 -8 0 -27 -10
-42 -22 -75 -60 -5246 -5242 -5292 -5303 -72 -96 -134 -226 -133 -280 1 -100
40 -193 121 -285 30 -35 811 -819 849 -852 17 -16 35 -28 41 -28 5 0 10 -4 10
-10 0 -5 7 -10 15 -10 8 0 15 -3 15 -7 0 -5 10 -13 23 -19 12 -6 63 -32 112
-56 50 -25 101 -49 115 -53 14 -4 30 -11 35 -15 6 -4 24 -11 40 -15 17 -5 35
-10 40 -11 44 -14 144 -37 210 -48 96 -16 346 -14 423 4 30 6 59 13 65 14 58
12 163 47 250 85 26 11 48 19 50 18 1 -1 16 8 32 19 17 12 40 25 53 28 12 4
22 12 22 17 0 5 5 9 11 9 49 0 277 223 2538 2485 1306 1306 2378 2375 2384
2375 6 0 8 2 5 5 -3 3 19 31 48 63 30 31 54 63 54 69 0 7 4 13 9 13 7 0 50 85
56 110 1 3 6 22 12 42 41 139 -21 326 -152 452 -46 44 -118 96 -134 96 -6 0
-11 5 -11 10 0 6 -8 10 -18 10 -10 0 -22 4 -28 9 -31 28 -181 39 -276 20 -64
-12 -158 -48 -158 -59 0 -5 -7 -10 -16 -12 -13 -2 -4784 -4766 -4784 -4776 0
-2 -18 -21 -40 -43 -56 -56 -120 -82 -205 -84 -92 -2 -122 12 -218 105 -108
103 -331 329 -335 338 -1 4 225 234 503 512 278 278 567 567 642 642 75 76
139 139 142 139 3 1 56 54 116 119 61 65 112 118 115 119 5 1 280 273 280 276
0 5 206 205 211 205 4 0 9 4 11 10 2 5 640 648 1419 1427 1320 1322 1417 1423
1450 1488 20 39 42 94 49 123 25 106 -3 242 -71 345 -36 55 -119 140 -160 164
-16 10 -29 21 -29 25 0 4 -5 8 -10 8 -6 0 -29 9 -53 19 -99 46 -201 53 -302
20z"/>
</g>
</svg>
