<?xml version="1.0" encoding="utf-8"?>
<!-- Generator: Adobe Illustrator 23.0.2, SVG Export Plug-In . SVG Version: 6.00 Build 0)  -->
<svg version="1.1" id="Lager_1" xmlns="http://www.w3.org/2000/svg" xmlns:xlink="http://www.w3.org/1999/xlink" x="0px" y="0px"
	 viewBox="0 0 496 496" style="enable-background:new 0 0 496 496;" xml:space="preserve">
<path fill="#fff" d="M496.5,151.8c-3.5-31.7-28.9-58.2-60.4-63c-6.6-1-13.2-0.9-19.5-0.2C412.8,39.1,371.4,0,321,0c-27.6,0-53.8,12-71.9,32.6
	C231.3,12.2,205.4,0,177,0c-50.4,0-91.8,39.1-95.6,88.6c-10.8-1.3-21.4-0.1-31.7,3.6c-30,11-49.1,38-48.6,68.8
	c0.6,39.1,32.9,71,72,71h56v56H89v16h40v88H33v16h32v56h16v-56h48v56h16V352h48v48h16v-48h32v-16h-96V216H73
	c-30.4,0-55.6-24.8-56-55.2c-0.3-24,14.6-45,38.1-53.6c8.6-3.2,17.3-3.9,26.3-2.4c0.5,5.9,1.6,11.7,3.2,17.4l15.4-4.4
	c-2-7.1-3-14.4-3-21.8c0-44.1,35.9-80,80-80c33.2,0,62.5,20,74.5,50.9l14.9-5.8c-2.1-5.4-4.7-10.4-7.6-15.2
	C274,27.2,296.8,16,321,16c42.8,0,77.8,33.9,79.8,76.3c-16.2,5.7-30,17-38.8,32.9l14,7.8c11.5-20.7,34.2-31.8,57.8-28.2
	c24.4,3.7,44.1,24.3,46.9,48.9c1.8,16.2-3.2,31.7-13.9,43.8C456.1,209.2,440.9,216,425,216H257v-48h48v-16h-24v-32h-16v32h-24v32
	h-48v16h48v32h88v200h16V312h24v48h16v-48h40v-16h-80v-64h80c20.4,0,40-8.7,53.6-24C492.3,192.8,498.8,172.3,496.5,151.8z"/>
<path d="M367,82.3l15.3-4.6C374.3,50.8,349.1,32,321,32v16C342.1,48,361,62.1,367,82.3z" fill="#fff" />
<path d="M129,480h16v16h-16V480z" fill="#fff" />
<path d="M257,336h16v16h-16V336z" fill="#fff" />
<path d="M1,392h16v16H1V392z" fill="#fff" />
<path d="M65,480h16v16H65V480z" fill="#fff" />
<path d="M57,288h16v16H57V288z" fill="#fff" />
<path d="M329,152h16v16h-16V152z" fill="#fff" />
<path d="M265,88h16v16h-16V88z" fill="#fff" />
<path d="M161,184h16v16h-16V184z" fill="#fff" />
<path d="M329,448h16v16h-16V448z" fill="#fff" />
<path d="M441,296h16v16h-16V296z" fill="#fff" />
<path d="M369,384h16v16h-16V384z" fill="#fff" />
<path d="M193,416h16v16h-16V416z" fill="#fff" />
</svg>
