<?xml version="1.0" encoding="UTF-8"?>
<!-- Generator: Adobe Illustrator 23.0.2, SVG Export Plug-In . SVG Version: 6.00 Build 0)  -->
<svg version="1.1" id="Lager_1" xmlns:cc="http://creativecommons.org/ns#" xmlns:dc="http://purl.org/dc/elements/1.1/" xmlns:inkscape="http://www.inkscape.org/namespaces/inkscape" xmlns:rdf="http://www.w3.org/1999/02/22-rdf-syntax-ns#" xmlns:sodipodi="http://sodipodi.sourceforge.net/DTD/sodipodi-0.dtd" xmlns:svg="http://www.w3.org/2000/svg" xmlns="http://www.w3.org/2000/svg" xmlns:xlink="http://www.w3.org/1999/xlink" x="0px" y="0px" viewBox="0 0 48 48" style="enable-background:new 0 0 48 48;" xml:space="preserve">
<g transform="translate(0,-1004.3622)">
	<path fill="#fff" d="M24,1004.4c-13.2,0-24,10.8-24,24s10.8,24,24,24s24-10.8,24-24S37.2,1004.4,24,1004.4z M24,1005.4c12.7,0,23,10.3,23,23   c0,12.7-10.3,23-23,23s-23-10.3-23-23C1,1015.7,11.3,1005.4,24,1005.4z M13.5,1013.4c-0.3,0-0.5,0.2-0.5,0.5v6   c0,0.3,0.2,0.5,0.5,0.5h10v2h-10c-0.3,0-0.5,0.2-0.5,0.5v6c0,0.3,0.2,0.5,0.5,0.5h10v2h-10c-0.3,0-0.5,0.2-0.5,0.5v6   c0,0.3,0.2,0.5,0.5,0.5h10v1.5H22c-0.3,0-0.5,0.2-0.5,0.5v1.6H13v1h8.5v1.4c0,0.3,0.2,0.5,0.5,0.5h4c0.3,0,0.5-0.2,0.5-0.5v-1.4H35   v-1h-8.5v-1.6c0-0.3-0.2-0.5-0.5-0.5h-1.5v-1.5h10c0.3,0,0.5-0.2,0.5-0.5v-6c0-0.3-0.2-0.5-0.5-0.5h-10v-2h10   c0.3,0,0.5-0.2,0.5-0.5v-6c0-0.3-0.2-0.5-0.5-0.5h-10v-2h10c0.3,0,0.5-0.2,0.5-0.5v-6c0-0.3-0.2-0.5-0.5-0.5H13.5z M14,1014.4h20v5   H14V1014.4z M15,1015.4v3h1v-3H15z M17,1015.4v3h1v-3H17z M19,1015.4v3h1v-3H19z M21,1015.4v3h1v-3H21z M28.5,1016.4   c-0.3,0-0.5,0.2-0.5,0.5s0.2,0.5,0.5,0.5s0.5-0.2,0.5-0.5S28.8,1016.4,28.5,1016.4z M30.5,1016.4c-0.3,0-0.5,0.2-0.5,0.5   s0.2,0.5,0.5,0.5s0.5-0.2,0.5-0.5S30.8,1016.4,30.5,1016.4z M32.5,1016.4c-0.3,0-0.5,0.2-0.5,0.5s0.2,0.5,0.5,0.5s0.5-0.2,0.5-0.5   S32.8,1016.4,32.5,1016.4z M14,1023.4h20v5H14V1023.4z M15,1024.4v3h1v-3H15z M17,1024.4v3h1v-3H17z M19,1024.4v3h1v-3H19z    M21,1024.4v3h1v-3H21z M28.5,1025.4c-0.3,0-0.5,0.2-0.5,0.5s0.2,0.5,0.5,0.5s0.5-0.2,0.5-0.5S28.8,1025.4,28.5,1025.4z    M30.5,1025.4c-0.3,0-0.5,0.2-0.5,0.5s0.2,0.5,0.5,0.5s0.5-0.2,0.5-0.5S30.8,1025.4,30.5,1025.4z M32.5,1025.4   c-0.3,0-0.5,0.2-0.5,0.5s0.2,0.5,0.5,0.5s0.5-0.2,0.5-0.5S32.8,1025.4,32.5,1025.4z M14,1032.4h20v5H14V1032.4z M15,1033.4v3h1v-3   H15z M17,1033.4v3h1v-3H17z M19,1033.4v3h1v-3H19z M21,1033.4v3h1v-3H21z M28.5,1034.4c-0.3,0-0.5,0.2-0.5,0.5s0.2,0.5,0.5,0.5   s0.5-0.2,0.5-0.5S28.8,1034.4,28.5,1034.4z M30.5,1034.4c-0.3,0-0.5,0.2-0.5,0.5s0.2,0.5,0.5,0.5s0.5-0.2,0.5-0.5   S30.8,1034.4,30.5,1034.4z M32.5,1034.4c-0.3,0-0.5,0.2-0.5,0.5s0.2,0.5,0.5,0.5s0.5-0.2,0.5-0.5S32.8,1034.4,32.5,1034.4z    M22.5,1040.9h3v3h-3V1040.9z"/>
</g>
</svg>